<svg width="50" height="49" fill="none" xmlns="http://www.w3.org/2000/svg"><path d="m29.528 14.119 5.885-5.322-2.396 7.564-.739 2.332 2.414-.399L42.52 17l-6.105 5.068-1.883 1.563 2.247.968 7.286 3.143-7.877.963L33.76 29l1.366 2.03 4.43 6.582-7.146-3.448-2.203-1.063.051 2.445.168 7.934-4.147-6.765L25 34.63l-1.279 2.086-4.147 6.764.168-7.933.052-2.445-2.204 1.063-7.146 3.448 4.43-6.583L16.24 29l-2.428-.296-7.877-.963 7.286-3.143 2.247-.968-1.883-1.563-6.105-5.068 7.828 1.295 2.414.4-.739-2.333-2.396-7.564 5.885 5.322 1.815 1.64.64-2.36L25 5.738l2.074 7.66.64 2.36 1.814-1.64Z" stroke="#EEDB6D" stroke-width="3"/></svg>